<svg width="635" height="932" viewBox="0 0 635 932" fill="none" xmlns="http://www.w3.org/2000/svg">
<path d="M83.104 659.62C83.104 679.416 68.404 692.352 40.18 692.352C27.048 692.352 13.916 688.824 6.076 684.708L14.7 664.324C19.992 667.656 31.752 671.184 39.396 671.184C49 671.184 55.272 666.676 55.272 659.62C55.272 651.78 48.412 648.448 39.004 645.116C25.676 640.216 8.82 633.944 8.82 613.168C8.82 594.548 22.932 582.004 47.628 582.004C61.152 582.004 72.128 585.336 80.164 589.648L71.932 607.876C67.424 605.132 58.016 601.8 50.96 601.8C41.552 601.8 36.064 606.504 36.064 612.776C36.064 620.812 42.924 623.948 52.136 627.28C66.052 632.376 83.104 638.256 83.104 659.62ZM186.197 684.708C178.357 688.824 162.481 692.352 146.605 692.352C114.853 692.352 98.9766 679.808 98.9766 658.248C98.9766 629.436 128.965 623.752 160.913 621.988V616.5C160.913 605.524 153.269 601.408 141.117 601.408C131.121 601.408 118.969 604.544 111.521 607.68L104.857 589.648C113.677 585.924 128.769 582.004 144.057 582.004C171.105 582.004 186.197 592.588 186.197 619.636V684.708ZM160.913 671.184V639.04C141.313 640.02 124.065 641.784 124.065 657.66C124.065 667.656 131.905 673.34 145.821 673.34C151.505 673.34 158.169 672.36 160.913 671.184ZM236.244 690H209.588V536.14H236.244V690ZM406.381 690H379.529V619.636C379.529 609.248 372.865 603.368 362.085 603.368C355.421 603.368 350.129 605.328 346.405 608.66V690H319.553V618.46C319.553 609.052 312.497 603.368 301.129 603.368C295.053 603.368 290.153 604.348 286.429 605.916V690H259.773V589.648C270.553 585.336 284.469 582.004 299.561 582.004C316.613 582.004 327.393 587.296 333.469 592.784C340.133 587.688 353.069 582.004 368.945 582.004C392.269 582.004 406.381 595.528 406.381 616.892V690ZM511.724 684.708C503.884 688.824 488.008 692.352 472.132 692.352C440.38 692.352 424.504 679.808 424.504 658.248C424.504 629.436 454.492 623.752 486.44 621.988V616.5C486.44 605.524 478.796 601.408 466.644 601.408C456.648 601.408 444.496 604.544 437.048 607.68L430.384 589.648C439.204 585.924 454.296 582.004 469.584 582.004C496.632 582.004 511.724 592.588 511.724 619.636V684.708ZM486.44 671.184V639.04C466.84 640.02 449.592 641.784 449.592 657.66C449.592 667.656 457.432 673.34 471.348 673.34C477.032 673.34 483.696 672.36 486.44 671.184ZM622.727 690H595.875V620.42C595.875 609.836 589.407 603.368 577.255 603.368C570.983 603.368 564.907 604.544 561.379 605.916V690H534.723V589.648C545.895 585.14 559.419 582.004 576.863 582.004C608.223 582.004 622.727 594.94 622.727 617.676V690Z" fill="#FCB82E"/>
<path d="M278.033 880.708C270.193 884.824 254.317 888.352 238.441 888.352C206.689 888.352 190.813 875.808 190.813 854.248C190.813 825.436 220.801 819.752 252.749 817.988V812.5C252.749 801.524 245.105 797.408 232.953 797.408C222.957 797.408 210.805 800.544 203.357 803.68L196.693 785.648C205.513 781.924 220.605 778.004 235.893 778.004C262.941 778.004 278.033 788.588 278.033 815.636V880.708ZM252.749 867.184V835.04C233.149 836.02 215.901 837.784 215.901 853.66C215.901 863.656 223.741 869.34 237.657 869.34C243.341 869.34 250.005 868.36 252.749 867.184ZM330.04 748.996C330.04 757.032 323.18 763.5 314.752 763.5C306.324 763.5 299.464 757.032 299.464 748.996C299.464 740.96 306.324 734.688 314.752 734.688C323.18 734.688 330.04 740.96 330.04 748.996ZM328.08 886H301.424V780.356H328.08V886ZM439.221 880.708C431.577 884.824 416.681 888.352 400.609 888.352C366.505 888.352 347.885 868.164 347.885 833.864C347.885 801.328 364.937 779.376 397.277 779.376C402.961 779.376 409.037 780.356 412.369 781.532V732.14H439.221V880.708ZM412.369 865.224V801.524C410.213 800.544 404.725 799.564 400.021 799.564C383.361 799.564 374.541 813.48 374.541 833.472C374.541 854.836 383.557 867.38 400.021 867.38C404.725 867.38 410.213 866.4 412.369 865.224Z" fill="#07B0C8"/>
<path d="M217.847 320.077L316.923 319.693L317.542 479.831L218.275 430.941L217.847 320.077Z" fill="#07B0C8"/>
<path d="M316.922 319.693L415.998 319.31L416.427 430.175L317.542 479.831L316.922 319.693Z" fill="#07B0C8"/>
<path d="M118.675 295.823L317.161 381.285L317.256 405.921L118.771 320.46L118.675 295.823Z" fill="#07B0C8"/>
<path d="M317.161 381.285L514.979 294.291L515.074 318.927L317.256 405.921L317.161 381.285Z" fill="#07B0C8"/>
<path d="M316.494 208.829L317.161 381.285L118.675 295.823L316.494 208.829Z" fill="#07B0C8"/>
<path d="M316.494 208.829L514.979 294.291L317.161 381.285L316.494 208.829Z" fill="#07B0C8"/>
<path d="M316.803 288.898L416.07 337.788L416.475 442.493" stroke="#F4D03F" stroke-width="5"/>
<path d="M416.451 436.334L422.667 442.469L416.499 448.652L410.283 442.517L416.451 436.334Z" fill="#F4D03F"/>
<path d="M416.499 448.652L416.761 516.403L398.184 516.475L416.499 448.652Z" fill="#F4D03F"/>
<path d="M416.499 448.652L435.337 516.331L416.761 516.403L416.499 448.652Z" fill="#F4D03F"/>
<path d="M316.756 276.58L316.851 301.216L304.419 288.946L316.756 276.58Z" fill="#F4D03F"/>
<path d="M316.756 276.579L329.188 288.85L316.851 301.216L316.756 276.579Z" fill="#F4D03F"/>
</svg>
