<svg width="1240" height="430" viewBox="60 270 1240 430" fill="none" xmlns="http://www.w3.org/2000/svg">
<path d="M749.104 416.62C749.104 436.416 734.404 449.352 706.18 449.352C693.048 449.352 679.916 445.824 672.076 441.708L680.7 421.324C685.992 424.656 697.752 428.184 705.396 428.184C715 428.184 721.272 423.676 721.272 416.62C721.272 408.78 714.412 405.448 705.004 402.116C691.676 397.216 674.82 390.944 674.82 370.168C674.82 351.548 688.932 339.004 713.628 339.004C727.152 339.004 738.128 342.336 746.164 346.648L737.932 364.876C733.424 362.132 724.016 358.8 716.96 358.8C707.552 358.8 702.064 363.504 702.064 369.776C702.064 377.812 708.924 380.948 718.136 384.28C732.052 389.376 749.104 395.256 749.104 416.62ZM852.197 441.708C844.357 445.824 828.481 449.352 812.605 449.352C780.853 449.352 764.977 436.808 764.977 415.248C764.977 386.436 794.965 380.752 826.913 378.988V373.5C826.913 362.524 819.269 358.408 807.117 358.408C797.121 358.408 784.969 361.544 777.521 364.68L770.857 346.648C779.677 342.924 794.769 339.004 810.057 339.004C837.105 339.004 852.197 349.588 852.197 376.636V441.708ZM826.913 428.184V396.04C807.313 397.02 790.065 398.784 790.065 414.66C790.065 424.656 797.905 430.34 811.821 430.34C817.505 430.34 824.169 429.36 826.913 428.184ZM902.244 447H875.588V293.14H902.244V447ZM1072.38 447H1045.53V376.636C1045.53 366.248 1038.86 360.368 1028.08 360.368C1021.42 360.368 1016.13 362.328 1012.4 365.66V447H985.553V375.46C985.553 366.052 978.497 360.368 967.129 360.368C961.053 360.368 956.153 361.348 952.429 362.916V447H925.773V346.648C936.553 342.336 950.469 339.004 965.561 339.004C982.613 339.004 993.393 344.296 999.469 349.784C1006.13 344.688 1019.07 339.004 1034.94 339.004C1058.27 339.004 1072.38 352.528 1072.38 373.892V447ZM1177.72 441.708C1169.88 445.824 1154.01 449.352 1138.13 449.352C1106.38 449.352 1090.5 436.808 1090.5 415.248C1090.5 386.436 1120.49 380.752 1152.44 378.988V373.5C1152.44 362.524 1144.8 358.408 1132.64 358.408C1122.65 358.408 1110.5 361.544 1103.05 364.68L1096.38 346.648C1105.2 342.924 1120.3 339.004 1135.58 339.004C1162.63 339.004 1177.72 349.588 1177.72 376.636V441.708ZM1152.44 428.184V396.04C1132.84 397.02 1115.59 398.784 1115.59 414.66C1115.59 424.656 1123.43 430.34 1137.35 430.34C1143.03 430.34 1149.7 429.36 1152.44 428.184ZM1288.73 447H1261.88V377.42C1261.88 366.836 1255.41 360.368 1243.26 360.368C1236.98 360.368 1230.91 361.544 1227.38 362.916V447H1200.72V346.648C1211.9 342.14 1225.42 339.004 1242.86 339.004C1274.22 339.004 1288.73 351.94 1288.73 374.676V447Z" fill="#FCB82E"/>
<path d="M760.276 637.708C752.436 641.824 736.56 645.352 720.684 645.352C688.932 645.352 673.056 632.808 673.056 611.248C673.056 582.436 703.044 576.752 734.992 574.988V569.5C734.992 558.524 727.348 554.408 715.196 554.408C705.2 554.408 693.048 557.544 685.6 560.68L678.936 542.648C687.756 538.924 702.848 535.004 718.136 535.004C745.184 535.004 760.276 545.588 760.276 572.636V637.708ZM734.992 624.184V592.04C715.392 593.02 698.144 594.784 698.144 610.66C698.144 620.656 705.984 626.34 719.9 626.34C725.584 626.34 732.248 625.36 734.992 624.184ZM812.283 505.996C812.283 514.032 805.423 520.5 796.995 520.5C788.567 520.5 781.707 514.032 781.707 505.996C781.707 497.96 788.567 491.688 796.995 491.688C805.423 491.688 812.283 497.96 812.283 505.996ZM810.323 643H783.667V537.356H810.323V643ZM921.464 637.708C913.82 641.824 898.924 645.352 882.852 645.352C848.748 645.352 830.128 625.164 830.128 590.864C830.128 558.328 847.18 536.376 879.52 536.376C885.204 536.376 891.28 537.356 894.612 538.532V489.14H921.464V637.708ZM894.612 622.224V558.524C892.456 557.544 886.968 556.564 882.264 556.564C865.604 556.564 856.784 570.48 856.784 590.472C856.784 611.836 865.8 624.38 882.264 624.38C886.968 624.38 892.456 623.4 894.612 622.224Z" fill="#07B0C8"/>
<path d="M200.392 428.044L332.888 427.531L333.716 641.686L200.965 576.305L200.392 428.044Z" fill="#07B0C8"/>
<path d="M332.888 427.532L465.384 427.019L465.957 575.28L333.716 641.686L332.888 427.532Z" fill="#07B0C8"/>
<path d="M67.769 395.609L333.207 509.899L333.334 542.846L67.8965 428.556L67.769 395.609Z" fill="#07B0C8"/>
<path d="M333.207 509.899L597.752 393.56L597.88 426.507L333.334 542.846L333.207 509.899Z" fill="#07B0C8"/>
<path d="M332.315 279.27L333.207 509.899L67.7692 395.609L332.315 279.27Z" fill="#07B0C8"/>
<path d="M332.314 279.271L597.752 393.56L333.206 509.899L332.314 279.271Z" fill="#07B0C8"/>
<path d="M332.729 386.348L465.48 451.729L466.021 591.754" stroke="#F4D03F" stroke-width="5"/>
<path d="M465.989 583.517L474.302 591.722L466.053 599.99L457.74 591.786L465.989 583.517Z" fill="#F4D03F"/>
<path d="M466.053 599.99L466.403 690.594L441.56 690.69L466.053 599.99Z" fill="#F4D03F"/>
<path d="M466.053 599.99L491.246 690.498L466.403 690.594L466.053 599.99Z" fill="#F4D03F"/>
<path d="M332.665 369.874L332.792 402.821L316.167 386.412L332.665 369.874Z" fill="#F4D03F"/>
<path d="M332.665 369.874L349.291 386.284L332.792 402.821L332.665 369.874Z" fill="#F4D03F"/>
</svg>
